<?xml version="1.0" standalone="no"?>
<!DOCTYPE svg PUBLIC "-//W3C//DTD SVG 20010904//EN"
 "http://www.w3.org/TR/2001/REC-SVG-20010904/DTD/svg10.dtd">
<svg version="1.0" xmlns="http://www.w3.org/2000/svg"
 width="818.000000pt" height="818.000000pt" viewBox="0 0 818.000000 818.000000"
 preserveAspectRatio="xMidYMid meet">
<metadata>
Created by potrace 1.11, written by Peter Selinger 2001-2013
</metadata>
<g transform="translate(0.000000,818.000000) scale(0.100000,-0.100000)"
fill="#000000" stroke="none">
<path d="M3228 7435 c-2 -2 -23 -6 -47 -10 -143 -21 -351 -108 -453 -190 -72
-56 -141 -144 -170 -212 -16 -39 -27 -53 -42 -54 -12 -1 -30 -3 -41 -4 -11 -2
-42 -6 -69 -9 -142 -16 -350 -69 -466 -119 -231 -98 -370 -219 -419 -363 -11
-33 -26 -62 -33 -66 -7 -4 -35 -17 -63 -30 -297 -136 -522 -390 -600 -676 -25
-92 -33 -145 -34 -252 -1 -62 -3 -66 -34 -88 -161 -111 -300 -319 -322 -480
-19 -135 2 -266 61 -388 19 -38 34 -73 34 -78 0 -4 -12 -19 -26 -34 -41 -43
-103 -138 -135 -205 -92 -198 -89 -443 8 -640 14 -28 42 -74 62 -102 l36 -50
1 -200 c1 -110 4 -218 8 -239 3 -22 9 -53 11 -70 11 -65 45 -174 74 -239 38
-84 78 -143 141 -207 46 -47 149 -120 168 -120 14 0 44 -37 41 -52 -2 -10 10
-127 16 -148 0 -3 4 -21 8 -41 12 -61 56 -160 104 -233 121 -187 354 -346 605
-412 104 -27 180 -42 224 -43 15 -1 34 -21 62 -64 129 -200 432 -358 787 -412
93 -14 116 -15 240 -15 164 0 215 6 345 42 350 95 629 373 761 758 l32 95 0
2505 c0 1378 -3 2528 -7 2555 -11 71 -60 193 -101 251 -88 124 -227 234 -363
286 -81 32 -87 33 -172 49 -48 8 -224 11 -232 4z"/>
<path d="M4815 7424 c-113 -16 -114 -16 -211 -53 -179 -69 -329 -207 -399
-366 -57 -127 -53 32 -53 -2699 l0 -2519 25 -76 c70 -210 214 -419 383 -553
131 -104 343 -197 510 -224 19 -3 38 -8 41 -10 24 -15 307 -22 438 -11 329 28
646 197 776 415 29 48 32 51 85 57 227 28 474 131 633 265 172 144 282 360
289 565 l3 74 59 28 c79 37 210 166 258 253 66 119 108 267 123 425 7 82 8
284 0 337 -4 32 1 46 40 102 200 286 185 642 -40 918 l-54 67 35 71 c57 112
69 168 68 305 -1 207 -120 415 -325 567 l-36 27 -1 88 c-3 188 -57 352 -173
526 -93 138 -280 292 -456 373 -71 33 -83 42 -89 69 -27 131 -177 278 -377
370 -128 59 -353 122 -497 139 -25 3 -71 8 -102 12 -43 5 -58 10 -58 22 0 26
-67 136 -115 190 -104 115 -279 208 -450 237 -22 4 -51 9 -65 12 -55 10 -180
9 -265 -3z"/>
</g>
</svg>
